# This file uses centimeters as units for non-parametric coordinates.

mtllib bote.mtl
g default
v -1.623363 3.304653 1.685351
v 1.623363 3.304653 1.685350
v -1.623363 4.501431 1.371171
v 1.623363 4.501431 1.371171
v -1.623363 4.480917 -1.234848
v 1.623363 4.480917 -1.234848
v -1.623363 3.325168 -1.821674
v 1.623363 3.325168 -1.821674
vt 0.375000 0.000000
vt 0.625000 0.000000
vt 0.375000 0.250000
vt 0.625000 0.250000
vt 0.375000 0.500000
vt 0.625000 0.500000
vt 0.375000 0.750000
vt 0.625000 0.750000
vt 0.375000 1.000000
vt 0.625000 1.000000
vt 0.875000 0.000000
vt 0.875000 0.250000
vt 0.125000 0.000000
vt 0.125000 0.250000
vn 0.000000 0.253917 0.967226
vn 0.000000 0.253917 0.967226
vn 0.000000 0.253917 0.967226
vn 0.000000 0.253917 0.967226
vn -0.000000 0.999969 -0.007872
vn -0.000000 0.999969 -0.007872
vn -0.000000 0.999969 -0.007872
vn 0.000000 0.999969 -0.007872
vn 0.000000 -0.999983 -0.005850
vn -0.000000 -0.999983 -0.005850
vn -0.000000 -0.999983 -0.005849
vn -0.000000 -0.999983 -0.005849
vn 1.000000 0.000000 0.000000
vn 1.000000 0.000000 0.000000
vn 1.000000 -0.000000 0.000000
vn 1.000000 -0.000000 0.000000
vn -1.000000 -0.000000 0.000000
vn -1.000000 -0.000000 0.000000
vn -1.000000 -0.000000 0.000000
vn -1.000000 0.000000 0.000000
s 1
g Tapa1
usemtl lambert2SG
f 1/1/1 2/2/2 3/3/3
f 3/3/3 2/2/2 4/4/4
s 2
f 3/3/5 4/4/6 5/5/7
f 5/5/7 4/4/6 6/6/8
s 3
f 7/7/9 8/8/10 1/9/11
f 1/9/11 8/8/10 2/10/12
s 4
f 8/11/13 6/12/14 2/2/15
f 2/2/15 6/12/14 4/4/16
s 5
f 7/13/17 1/1/18 5/14/19
f 5/14/19 1/1/18 3/3/20
g default
v -1.510666 -0.335401 1.307196
v 1.510666 -0.335401 1.307196
v -1.510666 3.304563 1.307196
v 1.510666 3.304563 1.307196
v -1.298523 3.304563 -1.307196
v 1.298523 3.304563 -1.307196
v -1.298523 -0.335401 -1.307196
v 1.298523 -0.335401 -1.307196
vt 0.375000 0.000000
vt 0.625000 0.000000
vt 0.375000 0.250000
vt 0.625000 0.250000
vt 0.725918 0.831479
vt 0.278811 0.832360
vt 0.724679 0.141429
vt 0.277572 0.142310
vt 0.171951 0.357011
vt 0.097785 0.335638
vt 0.875000 0.000000
vt 0.875000 0.250000
vt 0.125000 0.000000
vt 0.125000 0.250000
vn 0.000000 0.000000 1.000000
vn 0.000000 0.000000 1.000000
vn 0.000000 0.000000 1.000000
vn 0.000000 0.000000 1.000000
vn 0.000000 0.000000 -1.000000
vn 0.000000 0.000000 -1.000000
vn 0.000000 0.000000 -1.000000
vn 0.000000 0.000000 -1.000000
vn 0.000000 -1.000000 0.000000
vn 0.000000 -1.000000 -0.000000
vn 0.000000 -1.000000 -0.000000
vn 0.000000 -1.000000 -0.000000
vn 0.996724 0.000000 -0.080879
vn 0.996724 0.000000 -0.080879
vn 0.996724 0.000000 -0.080879
vn 0.996724 0.000000 -0.080879
vn -0.996724 0.000000 -0.080879
vn -0.996724 0.000000 -0.080879
vn -0.996724 0.000000 -0.080879
vn -0.996724 0.000000 -0.080879
s 1
g Bote1
usemtl lambert3SG
f 9/15/21 10/16/22 11/17/23
f 11/17/23 10/16/22 12/18/24
s 2
f 13/19/25 14/20/26 15/21/27
f 15/21/27 14/20/26 16/22/28
s 3
f 15/21/29 16/22/30 9/23/31
f 9/23/31 16/22/30 10/24/32
s 4
f 10/16/33 16/25/34 12/18/35
f 12/18/35 16/25/34 14/26/36
s 5
f 15/27/37 9/15/38 13/28/39
f 13/28/39 9/15/38 11/17/40
