# This file uses centimeters as units for non-parametric coordinates.

mtllib pilar.mtl
g default
v -8.341192 -0.012340 12.899907
v -7.187468 -0.012340 12.899907
v -8.341192 2.692601 12.899907
v -7.187468 2.692601 12.899907
v -8.341192 2.692601 -4.060018
v -7.187468 2.692601 -4.060018
v -8.341192 -0.012340 -4.060018
v -7.187468 -0.012340 -4.060018
vt 0.988861 0.310859
vt 0.694027 0.400369
vt 0.211658 0.028584
vt -0.691314 0.889945
vt 0.006397 0.708981
vt 0.889551 0.997120
vt 0.004840 0.802121
vt 0.288637 0.991220
vt 0.004840 0.895530
vt 0.098248 0.895530
vt 0.990777 0.368645
vt 0.990777 0.889945
vt -0.687787 0.310859
vt -0.687787 0.783705
vt 0.098248 0.802121
vt 0.006397 0.991220
vt 0.288637 0.708981
vt 0.211658 0.997120
vt 0.889551 0.028584
vt 0.407181 0.687215
vt 0.407181 0.400369
vt 0.988861 0.783705
vt -0.691314 0.368645
vt 0.694027 0.687215
vn 0.000000 0.000000 1.000000
vn 0.000000 0.000000 1.000000
vn 0.000000 0.000000 1.000000
vn 0.000000 0.000000 1.000000
vn 0.000000 1.000000 0.000000
vn 0.000000 1.000000 0.000000
vn 0.000000 1.000000 0.000000
vn 0.000000 1.000000 0.000000
vn 0.000000 0.000000 -1.000000
vn 0.000000 0.000000 -1.000000
vn 0.000000 0.000000 -1.000000
vn 0.000000 0.000000 -1.000000
vn 0.000000 -1.000000 0.000000
vn 0.000000 -1.000000 0.000000
vn 0.000000 -1.000000 0.000000
vn 0.000000 -1.000000 0.000000
vn 1.000000 0.000000 0.000000
vn 1.000000 0.000000 0.000000
vn 1.000000 0.000000 0.000000
vn 1.000000 0.000000 0.000000
vn -1.000000 0.000000 0.000000
vn -1.000000 0.000000 0.000000
vn -1.000000 0.000000 0.000000
vn -1.000000 0.000000 0.000000
s 1
g Pilar1
usemtl lambert4SG
f 1/21/1 2/2/2 3/20/3
f 3/20/3 2/2/2 4/24/4
s 2
f 3/3/5 4/19/6 5/18/7
f 5/18/7 4/19/6 6/6/8
s 3
f 5/5/9 6/17/10 7/16/11
f 7/16/11 6/17/10 8/8/12
s 4
f 7/7/13 8/15/14 1/9/15
f 1/9/15 8/15/14 2/10/16
s 5
f 2/23/17 8/11/18 4/4/19
f 4/4/19 8/11/18 6/12/20
s 6
f 7/13/21 1/1/22 5/14/23
f 5/14/23 1/1/22 3/22/24
g default
v -8.341192 -0.012340 12.899907
v -7.187468 -0.012340 12.899907
v -8.341192 2.692601 12.899907
v -7.187468 2.692601 12.899907
v -8.341192 2.692601 -4.060018
v -7.187468 2.692601 -4.060018
v -8.341192 -0.012340 -4.060018
v -7.187468 -0.012340 -4.060018
vt 0.988861 0.310859
vt 0.694027 0.400369
vt 0.211658 0.028584
vt -0.691314 0.889945
vt 0.006397 0.708981
vt 0.889551 0.997120
vt 0.004840 0.802121
vt 0.288637 0.991220
vt 0.004840 0.895530
vt 0.098248 0.895530
vt 0.990777 0.368645
vt 0.990777 0.889945
vt -0.687787 0.310859
vt -0.687787 0.783705
vt 0.098248 0.802121
vt 0.006397 0.991220
vt 0.288637 0.708981
vt 0.211658 0.997120
vt 0.889551 0.028584
vt 0.407181 0.687215
vt 0.407181 0.400369
vt 0.988861 0.783705
vt -0.691314 0.368645
vt 0.694027 0.687215
vn 0.000000 0.000000 1.000000
vn 0.000000 0.000000 1.000000
vn 0.000000 0.000000 1.000000
vn 0.000000 0.000000 1.000000
vn 0.000000 1.000000 0.000000
vn 0.000000 1.000000 0.000000
vn 0.000000 1.000000 0.000000
vn 0.000000 1.000000 0.000000
vn 0.000000 0.000000 -1.000000
vn 0.000000 0.000000 -1.000000
vn 0.000000 0.000000 -1.000000
vn 0.000000 0.000000 -1.000000
vn 0.000000 -1.000000 0.000000
vn 0.000000 -1.000000 0.000000
vn 0.000000 -1.000000 0.000000
vn 0.000000 -1.000000 0.000000
vn 1.000000 0.000000 0.000000
vn 1.000000 0.000000 0.000000
vn 1.000000 0.000000 0.000000
vn 1.000000 0.000000 0.000000
vn -1.000000 0.000000 0.000000
vn -1.000000 0.000000 0.000000
vn -1.000000 0.000000 0.000000
vn -1.000000 0.000000 0.000000
s 1
g Pilar1
f 9/45/25 10/26/26 11/44/27
f 11/44/27 10/26/26 12/48/28
s 2
f 11/27/29 12/43/30 13/42/31
f 13/42/31 12/43/30 14/30/32
s 3
f 13/29/33 14/41/34 15/40/35
f 15/40/35 14/41/34 16/32/36
s 4
f 15/31/37 16/39/38 9/33/39
f 9/33/39 16/39/38 10/34/40
s 5
f 10/47/41 16/35/42 12/28/43
f 12/28/43 16/35/42 14/36/44
s 6
f 15/37/45 9/25/46 13/38/47
f 13/38/47 9/25/46 11/46/48
