# This file uses centimeters as units for non-parametric coordinates.

mtllib trash.mtl
g default
v 0.903952 2.894879 -0.919740
v 0.903952 2.957529 -0.919740
v 0.903952 2.894879 0.918520
v 0.903952 2.957529 0.918520
v -0.893353 2.894879 0.918520
v -0.893353 2.957529 0.918520
v -0.893353 2.894879 -0.919740
v -0.893353 2.957529 -0.919740
v -0.885975 0.012094 0.944154
v 0.885975 0.012094 0.944154
v -0.885975 1.996907 0.944154
v 0.885975 1.996907 0.944154
v -0.885975 1.996907 -0.944154
v 0.885975 1.996907 -0.944154
v -0.885975 0.012094 -0.944154
v 0.885975 0.012094 -0.944154
v -0.948018 -0.018760 0.939940
v -0.885368 -0.018760 0.939940
v -0.948018 3.191339 0.939940
v -0.885368 3.191339 0.939940
v -0.948018 3.191339 -0.939940
v -0.885368 3.191339 -0.939940
v -0.948018 -0.018760 -0.939940
v -0.885368 -0.018760 -0.939940
v 0.926940 -0.018760 -0.890129
v 0.926940 -0.018760 -0.952779
v 0.926940 3.191339 -0.890129
v 0.926940 3.191339 -0.952779
v -0.952771 3.191339 -0.890129
v -0.952771 3.191339 -0.952779
v -0.952771 -0.018760 -0.890129
v -0.952771 -0.018760 -0.952779
v 0.819988 0.091574 0.998723
v 0.819988 0.091574 0.936072
v 0.819988 1.863026 0.998723
v 0.819988 1.863026 0.936072
v -0.845819 1.863026 0.998723
v -0.845819 1.863026 0.936072
v -0.845819 0.091574 0.998723
v -0.845819 0.091574 0.936072
v 0.888895 -0.018760 0.939940
v 0.951546 -0.018760 0.939940
v 0.888895 3.191339 0.939940
v 0.951546 3.191339 0.939940
v 0.888895 3.191339 -0.939940
v 0.951546 3.191339 -0.939940
v 0.888895 -0.018760 -0.939940
v 0.951546 -0.018760 -0.939940
vt 0.976234 0.023394
vt 0.562181 0.060179
vt 0.312181 0.060179
vt 0.125913 0.973452
vt 0.312181 0.060179
vt 0.562181 0.908748
vt 0.312181 0.060179
vt 0.562181 0.908748
vt 0.312181 0.908748
vt 0.562181 0.908748
vt 0.976234 0.023394
vt 0.976234 0.973452
vt 0.125913 0.023394
vt 0.125913 0.973452
vt 0.562181 0.060179
vt 0.312181 0.908748
vt 0.562181 0.060179
vt 0.312181 0.908748
vt 0.562181 0.060179
vt 0.312181 0.908748
vt 0.125913 0.023394
vt 0.562181 0.908748
vt 0.312181 0.060179
vt 0.976234 0.973452
vt 0.123993 0.226308
vt 0.876007 0.226308
vt 0.876007 0.978323
vt 0.123993 0.978323
vt 0.123993 0.226308
vt 0.876007 0.226308
vt 0.876007 0.978323
vt 0.123993 0.978323
vt 0.123993 0.226308
vt 0.876007 0.226308
vt 0.876007 0.978323
vt 0.123993 0.978323
vt 0.123993 0.226308
vt 0.876007 0.226308
vt 0.876007 0.978323
vt 0.123993 0.978323
vt 0.123993 0.226308
vt 0.876007 0.226308
vt 0.876007 0.978323
vt 0.123993 0.978323
vt 0.312181 0.060179
vt 0.562181 0.060179
vt 0.562181 0.908748
vt 0.312181 0.908748
vt 0.312181 0.060179
vt 0.562181 0.060179
vt 0.562181 0.908748
vt 0.312181 0.908748
vt 0.312181 0.060179
vt 0.562181 0.060179
vt 0.562181 0.908748
vt 0.312181 0.908748
vt 0.312181 0.060179
vt 0.562181 0.060179
vt 0.562181 0.908748
vt 0.312181 0.908748
vt 0.124962 0.042841
vt 0.973696 0.042841
vt 0.973696 0.978435
vt 0.124962 0.978435
vt 0.124962 0.042841
vt 0.973696 0.042841
vt 0.973696 0.978435
vt 0.124962 0.978435
vt 0.312181 0.060179
vt 0.562181 0.060179
vt 0.562181 0.908748
vt 0.312181 0.908748
vt 0.312181 0.060179
vt 0.562181 0.060179
vt 0.562181 0.908748
vt 0.312181 0.908748
vt 0.312181 0.060179
vt 0.562181 0.060179
vt 0.562181 0.908748
vt 0.312181 0.908748
vt 0.312181 0.060179
vt 0.562181 0.060179
vt 0.562181 0.908748
vt 0.312181 0.908748
vt 0.128495 0.023394
vt 0.977143 0.023394
vt 0.977143 0.973451
vt 0.128495 0.973451
vt 0.128495 0.023394
vt 0.977143 0.023394
vt 0.977143 0.973451
vt 0.128495 0.973451
vt 0.032001 0.060179
vt 0.282001 0.060179
vt 0.282001 0.908748
vt 0.032001 0.908748
vt 0.023575 0.060179
vt 0.273575 0.060179
vt 0.273575 0.908748
vt 0.023575 0.908748
vt 0.025681 0.060179
vt 0.275681 0.060179
vt 0.275681 0.908748
vt 0.025681 0.908748
vt 0.021468 0.060179
vt 0.271468 0.060179
vt 0.271468 0.908748
vt 0.021468 0.908748
vt 0.109648 0.029234
vt 0.889297 0.029139
vt 0.889412 0.974591
vt 0.109764 0.974687
vt 0.312181 0.060179
vt 0.562181 0.060179
vt 0.562181 0.908748
vt 0.312181 0.908748
vt 0.312181 0.060179
vt 0.562181 0.060179
vt 0.562181 0.908748
vt 0.312181 0.908748
vt 0.312181 0.060179
vt 0.562181 0.060179
vt 0.562181 0.908748
vt 0.312181 0.908748
vt 0.024949 0.815251
vt 0.182836 0.815251
vt 0.182836 0.973138
vt 0.024949 0.973138
vt 0.117496 0.027508
vt 0.984652 0.027508
vt 0.984652 0.972828
vt 0.117496 0.972828
vt 0.117496 0.027508
vt 0.984652 0.027508
vt 0.984652 0.972828
vt 0.117496 0.972828
vn 1.000000 0.000000 0.000000
vn 1.000000 0.000000 0.000000
vn 1.000000 0.000000 0.000000
vn 1.000000 0.000000 0.000000
vn 0.000000 0.000000 1.000000
vn 0.000000 0.000000 1.000000
vn 0.000000 0.000000 1.000000
vn 0.000000 0.000000 1.000000
vn -1.000000 0.000000 0.000000
vn -1.000000 0.000000 0.000000
vn -1.000000 0.000000 0.000000
vn -1.000000 0.000000 0.000000
vn 0.000000 0.000000 -1.000000
vn 0.000000 0.000000 -1.000000
vn 0.000000 0.000000 -1.000000
vn 0.000000 0.000000 -1.000000
vn 0.000000 1.000000 0.000000
vn 0.000000 1.000000 0.000000
vn 0.000000 1.000000 0.000000
vn 0.000000 1.000000 0.000000
vn 0.000000 -1.000000 0.000000
vn 0.000000 -1.000000 0.000000
vn 0.000000 -1.000000 0.000000
vn 0.000000 -1.000000 0.000000
vn 0.000000 0.000000 1.000000
vn 0.000000 0.000000 1.000000
vn 0.000000 0.000000 1.000000
vn 0.000000 0.000000 1.000000
vn 0.000000 0.000000 -1.000000
vn 0.000000 0.000000 -1.000000
vn 0.000000 0.000000 -1.000000
vn 0.000000 0.000000 -1.000000
vn 0.000000 -1.000000 0.000000
vn 0.000000 -1.000000 0.000000
vn 0.000000 -1.000000 0.000000
vn 0.000000 -1.000000 0.000000
vn 1.000000 0.000000 0.000000
vn 1.000000 0.000000 0.000000
vn 1.000000 0.000000 0.000000
vn 1.000000 0.000000 0.000000
vn -1.000000 0.000000 0.000000
vn -1.000000 0.000000 0.000000
vn -1.000000 0.000000 0.000000
vn -1.000000 0.000000 0.000000
vn 0.000000 0.000000 1.000000
vn 0.000000 0.000000 1.000000
vn 0.000000 0.000000 1.000000
vn 0.000000 0.000000 1.000000
vn 0.000000 1.000000 0.000000
vn 0.000000 1.000000 0.000000
vn 0.000000 1.000000 0.000000
vn 0.000000 1.000000 0.000000
vn 0.000000 0.000000 -1.000000
vn 0.000000 0.000000 -1.000000
vn 0.000000 0.000000 -1.000000
vn 0.000000 0.000000 -1.000000
vn 0.000000 -1.000000 0.000000
vn 0.000000 -1.000000 0.000000
vn 0.000000 -1.000000 0.000000
vn 0.000000 -1.000000 0.000000
vn 1.000000 0.000000 0.000000
vn 1.000000 0.000000 0.000000
vn 1.000000 0.000000 0.000000
vn 1.000000 0.000000 0.000000
vn -1.000000 0.000000 0.000000
vn -1.000000 0.000000 0.000000
vn -1.000000 0.000000 0.000000
vn -1.000000 0.000000 0.000000
vn 1.000000 0.000000 0.000000
vn 1.000000 0.000000 0.000000
vn 1.000000 0.000000 0.000000
vn 1.000000 0.000000 0.000000
vn 0.000000 1.000000 0.000000
vn 0.000000 1.000000 0.000000
vn 0.000000 1.000000 0.000000
vn 0.000000 1.000000 0.000000
vn -1.000000 0.000000 0.000000
vn -1.000000 0.000000 0.000000
vn -1.000000 0.000000 0.000000
vn -1.000000 0.000000 0.000000
vn 0.000000 -1.000000 0.000000
vn 0.000000 -1.000000 0.000000
vn 0.000000 -1.000000 0.000000
vn 0.000000 -1.000000 0.000000
vn 0.000000 0.000000 -1.000000
vn 0.000000 0.000000 -1.000000
vn 0.000000 0.000000 -1.000000
vn 0.000000 0.000000 -1.000000
vn 0.000000 0.000000 1.000000
vn 0.000000 0.000000 1.000000
vn 0.000000 0.000000 1.000000
vn 0.000000 0.000000 1.000000
vn 1.000000 0.000000 0.000000
vn 1.000000 0.000000 0.000000
vn 1.000000 0.000000 0.000000
vn 1.000000 0.000000 0.000000
vn 0.000000 1.000000 0.000000
vn 0.000000 1.000000 0.000000
vn 0.000000 1.000000 0.000000
vn 0.000000 1.000000 0.000000
vn -1.000000 0.000000 0.000000
vn -1.000000 0.000000 0.000000
vn -1.000000 0.000000 0.000000
vn -1.000000 0.000000 0.000000
vn 0.000000 -1.000000 0.000000
vn 0.000000 -1.000000 0.000000
vn 0.000000 -1.000000 0.000000
vn 0.000000 -1.000000 0.000000
vn 0.000000 0.000000 -1.000000
vn 0.000000 0.000000 -1.000000
vn 0.000000 0.000000 -1.000000
vn 0.000000 0.000000 -1.000000
vn 0.000000 0.000000 1.000000
vn 0.000000 0.000000 1.000000
vn 0.000000 0.000000 1.000000
vn 0.000000 0.000000 1.000000
vn 0.000000 0.000000 1.000000
vn 0.000000 0.000000 1.000000
vn 0.000000 0.000000 1.000000
vn 0.000000 0.000000 1.000000
vn 0.000000 1.000000 0.000000
vn 0.000000 1.000000 0.000000
vn 0.000000 1.000000 0.000000
vn 0.000000 1.000000 0.000000
vn 0.000000 0.000000 -1.000000
vn 0.000000 0.000000 -1.000000
vn 0.000000 0.000000 -1.000000
vn 0.000000 0.000000 -1.000000
vn 0.000000 -1.000000 0.000000
vn 0.000000 -1.000000 0.000000
vn 0.000000 -1.000000 0.000000
vn 0.000000 -1.000000 0.000000
vn 1.000000 0.000000 0.000000
vn 1.000000 0.000000 0.000000
vn 1.000000 0.000000 0.000000
vn 1.000000 0.000000 0.000000
vn -1.000000 0.000000 0.000000
vn -1.000000 0.000000 0.000000
vn -1.000000 0.000000 0.000000
vn -1.000000 0.000000 0.000000
s 1
g pasted__pasted__pasted__pCube2
usemtl pasted__pasted__lambert2SG1
f 1/23/1 2/2/2 3/20/3
f 3/20/3 2/2/2 4/22/4
s 2
f 3/3/5 4/19/6 5/18/7
f 5/18/7 4/19/6 6/6/8
s 3
f 5/5/9 6/17/10 7/16/11
f 7/16/11 6/17/10 8/8/12
s 4
f 7/7/13 8/15/14 1/9/15
f 1/9/15 8/15/14 2/10/16
s 5
f 2/21/17 8/11/18 4/4/19
f 4/4/19 8/11/18 6/12/20
s 6
f 7/13/21 1/1/22 5/14/23
f 5/14/23 1/1/22 3/24/24
s 7
usemtl lambert2SG
f 9/25/25 10/26/26 11/28/27
f 11/28/27 10/26/26 12/27/28
s 8
f 13/29/29 14/30/30 15/32/31
f 15/32/31 14/30/30 16/31/32
s 9
f 15/33/33 16/34/34 9/36/35
f 9/36/35 16/34/34 10/35/36
s 10
f 10/37/37 16/38/38 12/40/39
f 12/40/39 16/38/38 14/39/40
s 11
f 15/41/41 9/42/42 13/44/43
f 13/44/43 9/42/42 11/43/44
s 12
f 17/45/45 18/46/46 19/48/47
f 19/48/47 18/46/46 20/47/48
s 13
f 19/49/49 20/50/50 21/52/51
f 21/52/51 20/50/50 22/51/52
s 14
f 21/53/53 22/54/54 23/56/55
f 23/56/55 22/54/54 24/55/56
s 15
f 23/57/57 24/58/58 17/60/59
f 17/60/59 24/58/58 18/59/60
s 16
f 18/61/61 24/62/62 20/64/63
f 20/64/63 24/62/62 22/63/64
s 17
f 23/65/65 17/66/66 21/68/67
f 21/68/67 17/66/66 19/67/68
s 18
f 25/69/69 26/70/70 27/72/71
f 27/72/71 26/70/70 28/71/72
s 19
f 27/73/73 28/74/74 29/76/75
f 29/76/75 28/74/74 30/75/76
s 20
f 29/77/77 30/78/78 31/80/79
f 31/80/79 30/78/78 32/79/80
s 21
f 31/81/81 32/82/82 25/84/83
f 25/84/83 32/82/82 26/83/84
s 22
f 26/85/85 32/86/86 28/88/87
f 28/88/87 32/86/86 30/87/88
s 23
f 31/89/89 25/90/90 29/92/91
f 29/92/91 25/90/90 27/91/92
s 24
usemtl lambert4SG
f 33/93/93 34/94/94 35/96/95
f 35/96/95 34/94/94 36/95/96
s 25
f 35/97/97 36/98/98 37/100/99
f 37/100/99 36/98/98 38/99/100
s 26
f 37/101/101 38/102/102 39/104/103
f 39/104/103 38/102/102 40/103/104
s 27
f 39/105/105 40/106/106 33/108/107
f 33/108/107 40/106/106 34/107/108
s 28
f 34//109 40//110 36//111
f 36//111 40//110 38//112
s 29
f 39/109/113 33/110/114 37/112/115
f 37/112/115 33/110/114 35/111/116
s 30
usemtl lambert2SG
f 41/113/117 42/114/118 43/116/119
f 43/116/119 42/114/118 44/115/120
s 31
f 43/117/121 44/118/122 45/120/123
f 45/120/123 44/118/122 46/119/124
s 32
f 45/121/125 46/122/126 47/124/127
f 47/124/127 46/122/126 48/123/128
s 33
f 47/125/129 48/126/130 41/128/131
f 41/128/131 48/126/130 42/127/132
s 34
f 42/129/133 48/130/134 44/132/135
f 44/132/135 48/130/134 46/131/136
s 35
f 47/133/137 41/134/138 45/136/139
f 45/136/139 41/134/138 43/135/140
